ffmpeg version 3.4.2 Copyright (c) 2000-2018 the FFmpeg developers
  built with gcc 7.3.0 (GCC)
  configuration: --disable-static --enable-shared --enable-gpl --enable-version3 --enable-sdl2 --enable-bzlib --enable-fontconfig --enable-gnutls --enable-iconv --enable-libass --enable-libbluray --enable-libfreetype --enable-libmp3lame --enable-libopencore-amrnb --enable-libopencore-amrwb --enable-libopenjpeg --enable-libopus --enable-libshine --enable-libsnappy --enable-libsoxr --enable-libtheora --enable-libtwolame --enable-libvpx --enable-libwavpack --enable-libwebp --enable-libx264 --enable-libx265 --enable-libxml2 --enable-libzimg --enable-lzma --enable-zlib --enable-gmp --enable-libvidstab --enable-libvorbis --enable-libvo-amrwbenc --enable-libmysofa --enable-libspeex --enable-libxvid --enable-libmfx --enable-cuda --enable-cuvid --enable-d3d11va --enable-nvenc --enable-dxva2 --enable-avisynth
  libavutil      55. 78.100 / 55. 78.100
  libavcodec     57.107.100 / 57.107.100
  libavformat    57. 83.100 / 57. 83.100
  libavdevice    57. 10.100 / 57. 10.100
  libavfilter     6.107.100 /  6.107.100
  libswscale      4.  8.100 /  4.  8.100
  libswresample   2.  9.100 /  2.  9.100
  libpostproc    54.  7.100 / 54.  7.100
Input #0, mov,mp4,m4a,3gp,3g2,mj2, from './store/x.mp4':
  Metadata:
    major_brand     : isom
    minor_version   : 512
    compatible_brands: mp41
    creation_time   : 2019-02-24T17:32:54.000000Z
    encoder         : BandiMp4Muxer 1.0
    encoder-eng     : BandiMp4Muxer 1.0
  Duration: 00:01:52.00, start: 0.000000, bitrate: 1427 kb/s
    Stream #0:0(eng): Video: mpeg4 (Simple Profile) (mp4v / 0x7634706D), yuv420p, 1728x1080 [SAR 1:1 DAR 8:5], 1424 kb/s, 29.98 fps, 30 tbr, 30k tbn, 30 tbc (default)
    Metadata:
      creation_time   : 2019-02-24T17:32:54.000000Z
      handler_name    : VideoHandler
Stream mapping:
  Stream #0:0 -> #0:0 (mpeg4 (native) -> h264 (libx264))
Press [q] to stop, [?] for help
[libx264 @ 00dbb2e0] using SAR=1/1
[libx264 @ 00dbb2e0] using cpu capabilities: MMX2 SSE2Fast LZCNT SSSE3 SSE4.2
[libx264 @ 00dbb2e0] profile High, level 4.0
[libx264 @ 00dbb2e0] 264 - core 155 r2901 7d0ff22 - H.264/MPEG-4 AVC codec - Copyleft 2003-2018 - http://www.videolan.org/x264.html - options: cabac=1 ref=3 deblock=1:0:0 analyse=0x3:0x113 me=hex subme=7 psy=1 psy_rd=1.00:0.00 mixed_ref=1 me_range=16 chroma_me=1 trellis=1 8x8dct=1 cqm=0 deadzone=21,11 fast_pskip=1 chroma_qp_offset=-2 threads=3 lookahead_threads=1 sliced_threads=0 nr=0 decimate=1 interlaced=0 bluray_compat=0 constrained_intra=0 bframes=3 b_pyramid=2 b_adapt=1 b_bias=0 direct=1 weightb=1 open_gop=0 weightp=2 keyint=250 keyint_min=25 scenecut=40 intra_refresh=0 rc_lookahead=40 rc=crf mbtree=1 crf=23.0 qcomp=0.60 qpmin=0 qpmax=69 qpstep=4 ip_ratio=1.40 aq=1:1.00
Output #0, mp4, to './store/newnew.mp4':
  Metadata:
    major_brand     : isom
    minor_version   : 512
    compatible_brands: mp41
    encoder         : Lavf57.83.100
    Stream #0:0(eng): Video: h264 (libx264) (avc1 / 0x31637661), yuv420p, 1728x1080 [SAR 1:1 DAR 8:5], q=-1--1, 30 fps, 15360 tbn, 30 tbc (default)
    Metadata:
      creation_time   : 2019-02-24T17:32:54.000000Z
      handler_name    : VideoHandler
      encoder         : Lavc57.107.100 libx264
    Side data:
      cpb: bitrate max/min/avg: 0/0/0 buffer size: 0 vbv_delay: -1
frame=   47 fps=0.0 q=0.0 size=       0kB time=00:00:00.00 bitrate=N/A dup=1 drop=0 speed=   0x    frame=   71 fps= 59 q=29.0 size=       0kB time=00:00:00.70 bitrate=   0.5kbits/s dup=1 drop=0 speed=0.58x    frame=   91 fps= 53 q=29.0 size=       0kB time=00:00:01.36 bitrate=   0.3kbits/s dup=1 drop=0 speed=0.796x    frame=  114 fps= 51 q=29.0 size=       0kB time=00:00:02.13 bitrate=   0.2kbits/s dup=1 drop=0 speed=0.957x    frame=  140 fps= 51 q=29.0 size=       0kB time=00:00:03.00 bitrate=   0.1kbits/s dup=1 drop=0 speed=1.08x    frame=  163 fps= 50 q=29.0 size=     256kB time=00:00:03.76 bitrate= 556.9kbits/s dup=1 drop=0 speed=1.15x    frame=  193 fps= 51 q=29.0 size=     256kB time=00:00:04.76 bitrate= 440.0kbits/s dup=1 drop=0 speed=1.26x    frame=  220 fps= 51 q=29.0 size=     256kB time=00:00:05.66 bitrate= 370.1kbits/s dup=1 drop=0 speed=1.32x    frame=  249 fps= 52 q=29.0 size=     256kB time=00:00:06.63 bitrate= 316.2kbits/s dup=1 drop=0 speed=1.37x    frame=  281 fps= 53 q=29.0 size=     256kB time=00:00:07.70 bitrate= 272.4kbits/s dup=1 drop=0 speed=1.44x    frame=  309 fps= 53 q=29.0 size=     256kB time=00:00:08.63 bitrate= 243.0kbits/s dup=1 drop=0 speed=1.47x    frame=  334 fps= 52 q=29.0 size=     256kB time=00:00:09.46 bitrate= 221.6kbits/s dup=1 drop=0 speed=1.48x    frame=  364 fps= 53 q=29.0 size=     256kB time=00:00:10.46 bitrate= 200.4kbits/s dup=1 drop=0 speed=1.51x    frame=  380 fps= 51 q=29.0 size=     512kB time=00:00:11.00 bitrate= 381.3kbits/s dup=1 drop=0 speed=1.48x    frame=  397 fps= 50 q=29.0 size=     512kB time=00:00:11.56 bitrate= 362.7kbits/s dup=1 drop=0 speed=1.45x    frame=  422 fps= 50 q=29.0 size=     512kB time=00:00:12.40 bitrate= 338.3kbits/s dup=1 drop=0 speed=1.46x    frame=  451 fps= 50 q=29.0 size=     512kB time=00:00:13.36 bitrate= 313.8kbits/s dup=1 drop=0 speed=1.48x    frame=  475 fps= 50 q=29.0 size=     768kB time=00:00:14.16 bitrate= 444.1kbits/s dup=1 drop=0 speed=1.49x    frame=  502 fps= 50 q=29.0 size=     768kB time=00:00:15.06 bitrate= 417.6kbits/s dup=1 drop=0 speed= 1.5x    frame=  525 fps= 50 q=29.0 size=     768kB time=00:00:15.83 bitrate= 397.4kbits/s dup=1 drop=0 speed= 1.5x    frame=  548 fps= 50 q=29.0 size=    1024kB time=00:00:16.60 bitrate= 505.4kbits/s dup=1 drop=0 speed= 1.5x    frame=  575 fps= 50 q=29.0 size=    1024kB time=00:00:17.50 bitrate= 479.4kbits/s dup=1 drop=0 speed=1.51x    frame=  600 fps= 49 q=29.0 size=    1024kB time=00:00:18.33 bitrate= 457.6kbits/s dup=1 drop=0 speed=1.51x    frame=  623 fps= 49 q=29.0 size=    1024kB time=00:00:19.10 bitrate= 439.2kbits/s dup=1 drop=0 speed=1.51x    frame=  651 fps= 50 q=29.0 size=    1024kB time=00:00:20.03 bitrate= 418.8kbits/s dup=1 drop=0 speed=1.52x    frame=  682 fps= 50 q=29.0 size=    1024kB time=00:00:21.06 bitrate= 398.2kbits/s dup=1 drop=0 speed=1.54x    frame=  715 fps= 50 q=29.0 size=    1024kB time=00:00:22.16 bitrate= 378.4kbits/s dup=1 drop=0 speed=1.56x    frame=  742 fps= 51 q=29.0 size=    1024kB time=00:00:23.06 bitrate= 363.7kbits/s dup=1 drop=0 speed=1.57x    frame=  772 fps= 51 q=29.0 size=    1024kB time=00:00:24.06 bitrate= 348.6kbits/s dup=1 drop=0 speed=1.58x    frame=  805 fps= 51 q=29.0 size=    1024kB time=00:00:25.16 bitrate= 333.3kbits/s dup=1 drop=0 speed= 1.6x    frame=  838 fps= 52 q=29.0 size=    1024kB time=00:00:26.26 bitrate= 319.4kbits/s dup=1 drop=0 speed=1.62x    frame=  874 fps= 52 q=29.0 size=    1024kB time=00:00:27.46 bitrate= 305.4kbits/s dup=1 drop=0 speed=1.64x    frame=  903 fps= 52 q=29.0 size=    1024kB time=00:00:28.43 bitrate= 295.0kbits/s dup=1 drop=0 speed=1.65x    frame=  937 fps= 53 q=29.0 size=    1024kB time=00:00:29.56 bitrate= 283.7kbits/s dup=1 drop=0 speed=1.67x    frame=  962 fps= 53 q=29.0 size=    1024kB time=00:00:30.40 bitrate= 276.0kbits/s dup=1 drop=0 speed=1.67x    frame=  994 fps= 53 q=29.0 size=    1024kB time=00:00:31.46 bitrate= 266.6kbits/s dup=1 drop=0 speed=1.68x    frame= 1025 fps= 53 q=29.0 size=    1024kB time=00:00:32.50 bitrate= 258.1kbits/s dup=1 drop=0 speed=1.69x    frame= 1047 fps= 53 q=29.0 size=    1024kB time=00:00:33.23 bitrate= 252.4kbits/s dup=1 drop=0 speed=1.67x    frame= 1078 fps= 53 q=29.0 size=    1280kB time=00:00:34.26 bitrate= 306.0kbits/s dup=1 drop=0 speed=1.68x    frame= 1099 fps= 53 q=29.0 size=    1280kB time=00:00:34.96 bitrate= 299.9kbits/s dup=1 drop=0 speed=1.68x    frame= 1123 fps= 53 q=29.0 size=    1280kB time=00:00:35.76 bitrate= 293.2kbits/s dup=1 drop=0 speed=1.67x    frame= 1147 fps= 52 q=29.0 size=    1280kB time=00:00:36.56 bitrate= 286.8kbits/s dup=1 drop=0 speed=1.67x    frame= 1172 fps= 52 q=29.0 size=    1280kB time=00:00:37.40 bitrate= 280.4kbits/s dup=1 drop=0 speed=1.67x    frame= 1203 fps= 53 q=29.0 size=    1280kB time=00:00:38.43 bitrate= 272.8kbits/s dup=1 drop=0 speed=1.68x    frame= 1225 fps= 52 q=29.0 size=    1280kB time=00:00:39.16 bitrate= 267.7kbits/s dup=1 drop=0 speed=1.67x    frame= 1256 fps= 52 q=29.0 size=    1280kB time=00:00:40.20 bitrate= 260.8kbits/s dup=1 drop=0 speed=1.68x    frame= 1287 fps= 53 q=29.0 size=    1280kB time=00:00:41.23 bitrate= 254.3kbits/s dup=1 drop=0 speed=1.69x    frame= 1314 fps= 53 q=29.0 size=    1280kB time=00:00:42.13 bitrate= 248.9kbits/s dup=1 drop=0 speed=1.69x    frame= 1345 fps= 53 q=29.0 size=    1280kB time=00:00:43.16 bitrate= 242.9kbits/s dup=1 drop=0 speed= 1.7x    frame= 1372 fps= 53 q=29.0 size=    1280kB time=00:00:44.06 bitrate= 238.0kbits/s dup=2 drop=0 speed= 1.7x    frame= 1400 fps= 53 q=29.0 size=    1280kB time=00:00:45.00 bitrate= 233.0kbits/s dup=2 drop=0 speed= 1.7x    frame= 1433 fps= 53 q=29.0 size=    1280kB time=00:00:46.10 bitrate= 227.5kbits/s dup=2 drop=0 speed=1.71x    frame= 1462 fps= 53 q=29.0 size=    1280kB time=00:00:47.06 bitrate= 222.8kbits/s dup=2 drop=0 speed=1.71x    frame= 1491 fps= 53 q=29.0 size=    1280kB time=00:00:48.03 bitrate= 218.3kbits/s dup=2 drop=0 speed=1.72x    frame= 1520 fps= 53 q=29.0 size=    1536kB time=00:00:49.00 bitrate= 256.8kbits/s dup=2 drop=0 speed=1.72x    frame= 1552 fps= 53 q=29.0 size=    1536kB time=00:00:50.06 bitrate= 251.3kbits/s dup=2 drop=0 speed=1.72x    frame= 1586 fps= 54 q=29.0 size=    1536kB time=00:00:51.20 bitrate= 245.8kbits/s dup=2 drop=0 speed=1.73x    frame= 1619 fps= 54 q=29.0 size=    1536kB time=00:00:52.30 bitrate= 240.6kbits/s dup=2 drop=0 speed=1.74x    frame= 1651 fps= 54 q=29.0 size=    1536kB time=00:00:53.36 bitrate= 235.8kbits/s dup=2 drop=0 speed=1.75x    frame= 1680 fps= 54 q=29.0 size=    1536kB time=00:00:54.33 bitrate= 231.6kbits/s dup=2 drop=0 speed=1.75x    frame= 1704 fps= 54 q=29.0 size=    1536kB time=00:00:55.13 bitrate= 228.2kbits/s dup=2 drop=0 speed=1.75x    frame= 1737 fps= 54 q=29.0 size=    1536kB time=00:00:56.23 bitrate= 223.8kbits/s dup=2 drop=0 speed=1.75x    frame= 1761 fps= 54 q=29.0 size=    1536kB time=00:00:57.03 bitrate= 220.6kbits/s dup=2 drop=0 speed=1.75x    frame= 1785 fps= 54 q=29.0 size=    1536kB time=00:00:57.83 bitrate= 217.6kbits/s dup=2 drop=0 speed=1.74x    frame= 1805 fps= 54 q=29.0 size=    1792kB time=00:00:58.50 bitrate= 250.9kbits/s dup=2 drop=0 speed=1.74x    frame= 1823 fps= 53 q=29.0 size=    1792kB time=00:00:59.10 bitrate= 248.4kbits/s dup=2 drop=0 speed=1.73x    frame= 1851 fps= 53 q=29.0 size=    1792kB time=00:01:00.03 bitrate= 244.5kbits/s dup=2 drop=0 speed=1.73x    frame= 1880 fps= 53 q=29.0 size=    1792kB time=00:01:01.00 bitrate= 240.7kbits/s dup=2 drop=0 speed=1.73x    frame= 1912 fps= 53 q=29.0 size=    1792kB time=00:01:02.06 bitrate= 236.5kbits/s dup=2 drop=0 speed=1.74x    frame= 1935 fps= 53 q=29.0 size=    1792kB time=00:01:02.83 bitrate= 233.6kbits/s dup=2 drop=0 speed=1.73x    frame= 1964 fps= 53 q=29.0 size=    1792kB time=00:01:03.80 bitrate= 230.1kbits/s dup=2 drop=0 speed=1.74x    frame= 1981 fps= 53 q=29.0 size=    2048kB time=00:01:04.36 bitrate= 260.7kbits/s dup=2 drop=0 speed=1.73x    frame= 2011 fps= 53 q=29.0 size=    2048kB time=00:01:05.36 bitrate= 256.7kbits/s dup=2 drop=0 speed=1.73x    frame= 2026 fps= 53 q=29.0 size=    2048kB time=00:01:05.86 bitrate= 254.7kbits/s dup=2 drop=0 speed=1.72x    frame= 2052 fps= 53 q=29.0 size=    2304kB time=00:01:06.73 bitrate= 282.8kbits/s dup=2 drop=0 speed=1.72x    frame= 2077 fps= 53 q=29.0 size=    2304kB time=00:01:07.56 bitrate= 279.3kbits/s dup=2 drop=0 speed=1.72x    frame= 2111 fps= 53 q=29.0 size=    2304kB time=00:01:08.70 bitrate= 274.7kbits/s dup=2 drop=0 speed=1.72x    frame= 2137 fps= 53 q=29.0 size=    2304kB time=00:01:09.56 bitrate= 271.3kbits/s dup=2 drop=0 speed=1.72x    frame= 2169 fps= 53 q=29.0 size=    2304kB time=00:01:10.63 bitrate= 267.2kbits/s dup=2 drop=0 speed=1.73x    frame= 2195 fps= 53 q=29.0 size=    2304kB time=00:01:11.50 bitrate= 264.0kbits/s dup=2 drop=0 speed=1.73x    frame= 2214 fps= 53 q=29.0 size=    2304kB time=00:01:12.13 bitrate= 261.7kbits/s dup=2 drop=0 speed=1.72x    frame= 2231 fps= 53 q=29.0 size=    2304kB time=00:01:12.70 bitrate= 259.6kbits/s dup=2 drop=0 speed=1.71x    frame= 2264 fps= 53 q=29.0 size=    2304kB time=00:01:13.80 bitrate= 255.8kbits/s dup=2 drop=0 speed=1.72x    frame= 2290 fps= 53 q=29.0 size=    2560kB time=00:01:14.66 bitrate= 280.9kbits/s dup=2 drop=0 speed=1.72x    frame= 2309 fps= 52 q=29.0 size=    2560kB time=00:01:15.30 bitrate= 278.5kbits/s dup=2 drop=0 speed=1.71x    frame= 2333 fps= 52 q=29.0 size=    2560kB time=00:01:16.10 bitrate= 275.6kbits/s dup=2 drop=0 speed=1.71x    frame= 2362 fps= 52 q=29.0 size=    2560kB time=00:01:17.06 bitrate= 272.1kbits/s dup=2 drop=0 speed=1.71x    frame= 2395 fps= 53 q=29.0 size=    2560kB time=00:01:18.16 bitrate= 268.3kbits/s dup=2 drop=0 speed=1.72x    frame= 2430 fps= 53 q=29.0 size=    2560kB time=00:01:19.33 bitrate= 264.4kbits/s dup=2 drop=0 speed=1.72x    frame= 2458 fps= 53 q=29.0 size=    2560kB time=00:01:20.26 bitrate= 261.3kbits/s dup=2 drop=0 speed=1.72x    frame= 2493 fps= 53 q=29.0 size=    2560kB time=00:01:21.43 bitrate= 257.5kbits/s dup=2 drop=0 speed=1.73x    frame= 2519 fps= 53 q=29.0 size=    2560kB time=00:01:22.30 bitrate= 254.8kbits/s dup=2 drop=0 speed=1.73x    frame= 2552 fps= 53 q=29.0 size=    2560kB time=00:01:23.40 bitrate= 251.5kbits/s dup=2 drop=0 speed=1.73x    frame= 2583 fps= 53 q=29.0 size=    2560kB time=00:01:24.43 bitrate= 248.4kbits/s dup=2 drop=0 speed=1.74x    frame= 2617 fps= 53 q=29.0 size=    2560kB time=00:01:25.56 bitrate= 245.1kbits/s dup=2 drop=0 speed=1.74x    frame= 2656 fps= 53 q=29.0 size=    2560kB time=00:01:26.86 bitrate= 241.4kbits/s dup=2 drop=0 speed=1.75x    frame= 2684 fps= 53 q=29.0 size=    2560kB time=00:01:27.80 bitrate= 238.9kbits/s dup=2 drop=0 speed=1.75x    frame= 2720 fps= 54 q=29.0 size=    2560kB time=00:01:29.00 bitrate= 235.6kbits/s dup=2 drop=0 speed=1.75x    frame= 2755 fps= 54 q=29.0 size=    2560kB time=00:01:30.16 bitrate= 232.6kbits/s dup=2 drop=0 speed=1.76x    frame= 2791 fps= 54 q=29.0 size=    2560kB time=00:01:31.36 bitrate= 229.5kbits/s dup=2 drop=0 speed=1.76x    frame= 2821 fps= 54 q=29.0 size=    2816kB time=00:01:32.36 bitrate= 249.8kbits/s dup=2 drop=0 speed=1.76x    frame= 2860 fps= 54 q=29.0 size=    2816kB time=00:01:33.66 bitrate= 246.3kbits/s dup=2 drop=0 speed=1.77x    frame= 2900 fps= 54 q=29.0 size=    2816kB time=00:01:35.00 bitrate= 242.8kbits/s dup=2 drop=0 speed=1.78x    frame= 2936 fps= 54 q=29.0 size=    2816kB time=00:01:36.20 bitrate= 239.8kbits/s dup=2 drop=0 speed=1.79x    frame= 2969 fps= 55 q=29.0 size=    2816kB time=00:01:37.30 bitrate= 237.1kbits/s dup=2 drop=0 speed=1.79x    frame= 3007 fps= 55 q=29.0 size=    2816kB time=00:01:38.56 bitrate= 234.0kbits/s dup=2 drop=0 speed= 1.8x    frame= 3046 fps= 55 q=26.0 size=    2816kB time=00:01:39.86 bitrate= 231.0kbits/s dup=2 drop=0 speed= 1.8x    frame= 3076 fps= 55 q=29.0 size=    2816kB time=00:01:40.86 bitrate= 228.7kbits/s dup=2 drop=0 speed= 1.8x    frame= 3105 fps= 55 q=29.0 size=    2816kB time=00:01:41.83 bitrate= 226.5kbits/s dup=2 drop=0 speed=1.81x    frame= 3137 fps= 55 q=29.0 size=    2816kB time=00:01:42.90 bitrate= 224.2kbits/s dup=2 drop=0 speed=1.81x    frame= 3162 fps= 55 q=29.0 size=    3072kB time=00:01:43.73 bitrate= 242.6kbits/s dup=2 drop=0 speed=1.81x    frame= 3183 fps= 55 q=29.0 size=    3072kB time=00:01:44.43 bitrate= 241.0kbits/s dup=2 drop=0 speed= 1.8x    frame= 3199 fps= 55 q=29.0 size=    3072kB time=00:01:44.96 bitrate= 239.8kbits/s dup=2 drop=0 speed=1.79x    frame= 3215 fps= 54 q=29.0 size=    3328kB time=00:01:45.50 bitrate= 258.4kbits/s dup=2 drop=0 speed=1.78x    frame= 3233 fps= 54 q=29.0 size=    3328kB time=00:01:46.10 bitrate= 257.0kbits/s dup=2 drop=0 speed=1.78x    frame= 3249 fps= 54 q=29.0 size=    3328kB time=00:01:46.63 bitrate= 255.7kbits/s dup=2 drop=0 speed=1.77x    frame= 3274 fps= 54 q=29.0 size=    3328kB time=00:01:47.46 bitrate= 253.7kbits/s dup=2 drop=0 speed=1.77x    frame= 3300 fps= 53 q=-1.0 Lsize=    3832kB time=00:01:49.90 bitrate= 285.6kbits/s dup=2 drop=0 speed=1.77x    
video:3793kB audio:0kB subtitle:0kB other streams:0kB global headers:0kB muxing overhead: 1.025686%
[libx264 @ 00dbb2e0] frame I:14    Avg QP:16.25  size: 93495
[libx264 @ 00dbb2e0] frame P:923   Avg QP:22.08  size:  2211
[libx264 @ 00dbb2e0] frame B:2363  Avg QP:31.20  size:   226
[libx264 @ 00dbb2e0] consecutive B-frames:  3.3%  2.5%  3.8% 90.4%
[libx264 @ 00dbb2e0] mb I  I16..4: 35.8% 51.0% 13.2%
[libx264 @ 00dbb2e0] mb P  I16..4:  1.5%  1.2%  0.3%  P16..4:  1.2%  0.3%  0.2%  0.0%  0.0%    skip:95.3%
[libx264 @ 00dbb2e0] mb B  I16..4:  0.1%  0.1%  0.0%  B16..8:  1.2%  0.1%  0.0%  direct: 0.0%  skip:98.4%  L0:51.8% L1:45.6% BI: 2.6%
[libx264 @ 00dbb2e0] 8x8 transform intra:45.7% inter:74.2%
[libx264 @ 00dbb2e0] coded y,uvDC,uvAC intra: 22.2% 11.7% 7.3% inter: 0.2% 0.1% 0.0%
[libx264 @ 00dbb2e0] i16 v,h,dc,p: 26% 72%  1%  0%
[libx264 @ 00dbb2e0] i8 v,h,dc,ddl,ddr,vr,hd,vl,hu: 29% 10% 47% 12%  1%  1%  0%  0%  1%
[libx264 @ 00dbb2e0] i4 v,h,dc,ddl,ddr,vr,hd,vl,hu: 30% 37% 15%  3%  3%  3%  3%  3%  3%
[libx264 @ 00dbb2e0] i8c dc,h,v,p: 76% 18%  6%  1%
[libx264 @ 00dbb2e0] Weighted P-Frames: Y:0.7% UV:0.5%
[libx264 @ 00dbb2e0] ref P L0: 54.8% 10.5% 25.0%  9.5%  0.2%
[libx264 @ 00dbb2e0] ref B L0: 67.2% 29.0%  3.8%
[libx264 @ 00dbb2e0] ref B L1: 95.8%  4.2%
[libx264 @ 00dbb2e0] kb/s:282.40
